<?xml version="1.0" encoding="utf-8"?>
<!-- Generator: Adobe Illustrator 19.0.0, SVG Export Plug-In . SVG Version: 6.00 Build 0)  -->
<svg xmlns="http://www.w3.org/2000/svg" xmlns:xlink="http://www.w3.org/1999/xlink" version="1.1" id="Capa_1" x="0px" y="0px" viewBox="0 0 1400 980" style="enable-background:new 0 0 1400 980;" xml:space="preserve">
<style type="text/css">
	.st0{fill:#FFFFFF;}
	.st1{fill:#414042;}
</style>

<path class="st1" d="M279.8,193.9c-37-53.1-109.6,7.2-109.6,7.2c26.1-25.6,52.7-64,19.7-97.2c-21-21.1-21.3-49.2-44.6-68.4  C121.9,16.3,87.7,58,78.2,114.8c-6.1,36.8,7.7,68.7,18.3,86.7c-1.5-0.9-3.1-1.8-4.7-2.6c0.8-2.7,0.1-5.8-1.9-7.9  c-2.2-2.3-5.3-3-8.1-2.3c-10.6-15.2-18.3-35.7-13.6-53.9c0.3-1.2-1.5-1.7-1.8-0.5c-4.9,18.8,2.8,39.6,13.6,55.2  c-0.6,0.3-1.2,0.8-1.8,1.3c0,0,0,0-0.1,0.1c-12.6-12.5-23-30-22.2-47.9c0.1-1.2-1.8-1.4-1.9-0.1c-0.9,18.5,9.9,36.5,22.9,49.5  c-2,3.1-1.7,7.3,0.9,10.1c1.9,2,4.6,2.9,7.2,2.5c7.4,15.7,26.7,45.6,72.9,70.4c0,0-2.8-7.5-8.9-18.1c0.4,0.1,0.8,0.1,1.2,0.2  C224.2,299,314.5,243.7,279.8,193.9z"/>
<path class="st1" d="M1310.2,95.4c-27.7,16.7-58.9,66.1-68.5,82c-0.9-4-2-8-3.4-12.1c2.3-1.3,3.8-3.8,3.8-6.6c0-2.9-1.6-5.4-4-6.7  c2.5-17,10.5-35.8,25.3-45.1c1-0.6,0.1-2.1-0.9-1.5c-15.3,9.5-23.4,28.5-26.1,45.9c-0.6-0.2-1.3-0.3-2-0.3c-0.6,0-1.2,0.1-1.8,0.2  c-2.7-17.5-10.9-36.3-26.1-45.9c-1-0.6-1.8,0.9-0.9,1.5c14.9,9.3,22.8,28,25.3,45c-2.5,1.3-4.2,3.8-4.2,6.8c0,2.6,1.3,4.9,3.2,6.3  c-1,3.1-2.1,6.9-3,11.5c-10.2-16.8-40.7-64.7-67.9-81.1c-33.2-20-63.5-21.3-56.1,3.3c7.4,24.5,17.1,36.6,17.2,61.7  c0.1,25.1,11.3,29.2,56.1,28.2c0,0-55.7,16-55.5,39.1c0.2,23.1,16.2,49.8,40.1,57.5c23.9,7.7,41.2-0.5,52.9-24  c6.4-12.9,10.6-24,13.1-31.4c1.5,9.1,3.9,18.8,7.3,29.4c0,0,5.1-12.1,8.1-30c2.5,7.4,6.7,18.8,13.3,32c11.7,23.5,29,31.7,52.9,24  c23.9-7.7,39.9-34.5,40.1-57.5c0.2-23.1-55.5-39.1-55.5-39.1c44.9,1.1,56-3.1,56.1-28.2c0.1-25.1,9.8-37.1,17.2-61.7  C1373.7,74.2,1343.4,75.5,1310.2,95.4z"/>
<path class="st1" d="M660.2,187.3c-19.8-1.1-39.1,10.7-52.6,24.7c-0.5-0.6-1-1.1-1.6-1.5c0,0-0.1,0-0.1-0.1  c10.1-15.1,25.5-29.1,43.6-31.9c1.2-0.2,1-2.1-0.2-1.9c-18.7,2.9-34.6,17.2-45,32.9c-3.5-1.4-7.7-0.3-10,3c-1.6,2.3-1.9,5.2-1.1,7.7  c-1.7,1.3-3.5,2.7-5.5,4.4c8-20.8,19.5-61.6,4.2-94.4c-9.3-19.7-16.4-31.7-21.6-41.1l0,0c-1.3-2.4-2.5-4.5-3.6-6.7c0,0,0,0,0,0  c-0.3-0.7-0.7-1.3-1-1.9c-0.1-0.1-0.1-0.3-0.2-0.4c-0.2-0.5-0.5-1-0.7-1.5c-0.1-0.2-0.2-0.4-0.3-0.6c-0.2-0.5-0.4-0.9-0.6-1.4  c-0.1-0.2-0.2-0.4-0.3-0.6c-0.2-0.5-0.4-0.9-0.6-1.4c-0.1-0.2-0.2-0.4-0.2-0.6c-0.2-0.5-0.4-1-0.6-1.5c-0.1-0.1-0.1-0.3-0.2-0.4  c-0.5-1.3-0.9-2.7-1.2-4.1c0-0.2-0.1-0.4-0.1-0.5c-0.1-0.5-0.3-1-0.4-1.6c-0.1-0.3-0.1-0.5-0.2-0.8c-0.1-0.5-0.2-1-0.3-1.4  c-0.1-0.3-0.1-0.6-0.2-0.9c-0.1-0.5-0.2-1-0.2-1.5c0-0.3-0.1-0.6-0.1-0.9c-0.1-0.5-0.1-1-0.2-1.5c0-0.3-0.1-0.6-0.1-0.9  c-0.1-0.6-0.1-1.2-0.2-1.8c0-0.3-0.1-0.6-0.1-0.9c-0.1-0.9-0.1-1.8-0.2-2.8c0,0-21.6,23-53.3,46.8c-31.7,23.8-44.7,86.4,0,114.5  c0,0-45.8-19.8-80.7,5c-32.9,23.4-36.7,46.8-49,43.2c0,0,0,0,0,0c0,0,0,0,0,0c0,0,0.1,0,0.1,0.1c0,0,0,0,0,0  c4.2,3.7,95.1,81.1,173,14.8c-4.3,9-8.3,19.1-11.8,30.5c0,0,48.2-30,63.3-81.7c2.9,0.2,5.8-1,7.6-3.5c1.8-2.6,2-5.9,0.7-8.6  c13.1-13.7,32.1-25.5,51.4-24.4C661.3,189.3,661.5,187.4,660.2,187.3z"/>
<path class="st1" d="M995.7,204.9c-37-53.1-109.6,7.2-109.6,7.2c26.1-25.6,52.7-64,19.7-97.2c-21-21.1-21.3-49.2-44.6-68.4  c-23.4-19.2-57.6,22.5-67.1,79.3c-6.1,36.8,7.7,68.7,18.3,86.7c-1.5-0.9-3.1-1.8-4.7-2.6c0.8-2.7,0.1-5.8-1.9-7.9  c-2.2-2.3-5.3-3-8.1-2.3c-10.6-15.2-18.3-35.7-13.6-53.9c0.3-1.2-1.5-1.7-1.8-0.5c-4.9,18.8,2.8,39.6,13.6,55.2  c-0.6,0.3-1.2,0.8-1.8,1.3c0,0,0,0-0.1,0.1c-12.6-12.5-23-30-22.2-47.9c0.1-1.2-1.8-1.4-1.9-0.1c-0.9,18.5,9.9,36.5,22.9,49.5  c-2,3.1-1.7,7.3,0.9,10.1c1.9,2,4.6,2.9,7.2,2.5c7.4,15.7,26.7,45.6,72.9,70.4c0,0-2.8-7.5-8.9-18.1c0.4,0.1,0.8,0.1,1.2,0.2  C940.1,310,1030.4,254.7,995.7,204.9z"/>
<path class="st1" d="M1045.1,462.6c0-0.2,0-0.4,0-0.6c0-0.1,0-0.1,0-0.2c0-0.3-0.1-0.5-0.2-0.8c0-0.1-0.1-0.2-0.1-0.2  c-0.1-0.2-0.1-0.4-0.2-0.6c0-0.1-0.1-0.2-0.1-0.3c-0.1-0.3-0.3-0.6-0.4-0.9c0-0.1-0.1-0.2-0.2-0.3c-0.1-0.2-0.3-0.4-0.4-0.7  c-0.1-0.1-0.2-0.3-0.3-0.4c-0.1-0.2-0.3-0.4-0.4-0.6c-0.1-0.2-0.3-0.4-0.5-0.6c-0.2-0.2-0.4-0.4-0.6-0.7c-0.2-0.2-0.3-0.4-0.5-0.5  c-0.1-0.1-0.3-0.3-0.4-0.4c-0.2-0.2-0.4-0.4-0.6-0.6c-0.1-0.1-0.1-0.1-0.2-0.2c-0.5-0.4-0.9-0.9-1.4-1.3c-0.1-0.1-0.2-0.2-0.3-0.3  c-0.3-0.2-0.6-0.5-0.9-0.7c-0.1,0-0.1-0.1-0.2-0.1c-1-0.8-2.1-1.6-3.4-2.4c0,0-0.1-0.1-0.1-0.1c-5.6-3.6-13.1-7-22.3-9.6  c0,0,0,0-0.1,0v0c-9.6-2.7-21-4.5-34.1-4.7c-40.3-0.5-79.5,26.3-87,31.7c-0.3-1-0.6-1.9-0.9-2.9c2-1.2,3.3-3.3,3.3-5.7  c0-2.5-1.4-4.7-3.5-5.9c2.2-14.8,9.1-31.2,22.1-39.3c0.8-0.5,0.1-1.9-0.8-1.3c-13.3,8.3-20.4,24.8-22.8,40c-0.6-0.2-1.1-0.2-1.7-0.2  c-0.5,0-1.1,0.1-1.6,0.2c-2.4-15.2-9.5-31.7-22.8-40c-0.8-0.5-1.6,0.8-0.8,1.3c12.9,8.1,19.9,24.4,22.1,39.2  c-2.2,1.1-3.6,3.4-3.6,5.9c0,2.3,1.1,4.2,2.8,5.5c-0.2,0.6-0.4,1.3-0.6,2c-10.5-7.3-47.5-31-85.3-30.5c-13.1,0.2-24.6,2-34.1,4.7v0  c0,0,0,0-0.1,0c-9.3,2.6-16.8,6-22.3,9.6c0,0-0.1,0.1-0.1,0.1c-1.2,0.8-2.3,1.6-3.4,2.4c-0.1,0-0.1,0.1-0.2,0.1  c-0.3,0.2-0.6,0.5-0.9,0.7c-0.1,0.1-0.2,0.2-0.3,0.3c-0.5,0.4-1,0.8-1.4,1.3c-0.1,0.1-0.2,0.1-0.2,0.2c-0.2,0.2-0.4,0.4-0.6,0.6  c-0.1,0.1-0.3,0.3-0.4,0.4c-0.2,0.2-0.3,0.4-0.5,0.5c-0.2,0.2-0.4,0.4-0.6,0.7c-0.2,0.2-0.3,0.4-0.5,0.6c-0.1,0.2-0.3,0.4-0.4,0.6  c-0.1,0.1-0.2,0.3-0.3,0.4c-0.1,0.2-0.3,0.4-0.4,0.7c-0.1,0.1-0.1,0.2-0.2,0.3c-0.2,0.3-0.3,0.6-0.4,0.9c0,0.1-0.1,0.2-0.1,0.3  c-0.1,0.2-0.2,0.4-0.2,0.6c0,0.1-0.1,0.2-0.1,0.2c-0.1,0.3-0.1,0.5-0.2,0.8c0,0.1,0,0.1,0,0.2c0,0.2,0,0.4,0,0.6c0,0.1,0,0.1,0,0.2  c0,0.2,0,0.5,0.1,0.7c2.1,8.4,33.4,28,42.5,41.5c9.1,13.5,14.5,24.1,28.7,29c0,0,9.6,30.9,27.4,50.3c0.3,0.3,0.5,0.6,0.8,0.8  c0.1,0.1,0.2,0.2,0.2,0.3c0.2,0.2,0.4,0.4,0.6,0.6c0.1,0.1,0.2,0.2,0.3,0.3c0.2,0.2,0.4,0.4,0.6,0.6c0.1,0.1,0.2,0.2,0.3,0.3  c0.2,0.2,0.4,0.4,0.6,0.6c0.1,0.1,0.2,0.2,0.2,0.2c0.3,0.3,0.6,0.6,0.9,0.8c0,0,0.1,0.1,0.1,0.1c0.3,0.2,0.5,0.5,0.8,0.7  c0.1,0.1,0.2,0.2,0.3,0.3c0.2,0.2,0.4,0.4,0.6,0.5c0.1,0.1,0.2,0.2,0.4,0.3c0.2,0.2,0.4,0.3,0.6,0.5c0.1,0.1,0.2,0.2,0.4,0.3  c0.2,0.2,0.5,0.4,0.7,0.6c0.1,0.1,0.2,0.2,0.3,0.2c0.3,0.3,0.6,0.5,1,0.7c0.1,0.1,0.2,0.1,0.3,0.2c0.2,0.2,0.5,0.3,0.7,0.5  c0.1,0.1,0.3,0.2,0.4,0.3c0.2,0.1,0.4,0.3,0.6,0.4c0.1,0.1,0.3,0.2,0.4,0.3c0.2,0.1,0.4,0.3,0.6,0.4c0.1,0.1,0.3,0.2,0.4,0.3  c0.2,0.1,0.5,0.3,0.7,0.4c0.1,0.1,0.2,0.2,0.4,0.2c0.3,0.2,0.7,0.4,1,0.6c0.2,0.1,0.3,0.2,0.5,0.3c0.2,0.1,0.4,0.2,0.6,0.3  c0.2,0.1,0.3,0.2,0.5,0.3c0.2,0.1,0.4,0.2,0.6,0.3c0.2,0.1,0.3,0.2,0.5,0.3c0.2,0.1,0.4,0.2,0.6,0.3c0.2,0.1,0.4,0.2,0.5,0.2  c0.2,0.1,0.4,0.2,0.6,0.2c0.3,0.1,0.6,0.2,0.9,0.4c0.2,0.1,0.4,0.2,0.6,0.2c0.2,0.1,0.4,0.1,0.6,0.2c0.2,0.1,0.3,0.1,0.5,0.2  c0.2,0.1,0.4,0.1,0.6,0.2c0.2,0,0.3,0.1,0.5,0.1c0.2,0.1,0.4,0.1,0.6,0.1c0.2,0,0.3,0.1,0.5,0.1c0.2,0,0.4,0.1,0.6,0.1  c0.1,0,0.3,0,0.4,0.1c0.4,0.1,0.8,0.1,1.2,0.2c0.1,0,0.3,0,0.4,0c0.2,0,0.4,0,0.6,0c0.2,0,0.3,0,0.5,0c0.2,0,0.4,0,0.6,0  c0.1,0,0.3,0,0.4,0c0.2,0,0.4,0,0.6,0c0.1,0,0.3,0,0.4,0c0.8-0.1,1.5-0.2,2.3-0.3c0.1,0,0.2-0.1,0.4-0.1c0.2-0.1,0.4-0.1,0.7-0.2  c0.1,0,0.3-0.1,0.4-0.1c0.2-0.1,0.4-0.1,0.6-0.2c0.1,0,0.3-0.1,0.4-0.1c0.2-0.1,0.4-0.2,0.7-0.3c0.1,0,0.2-0.1,0.3-0.2  c0.8-0.3,1.5-0.8,2.3-1.2c0.1-0.1,0.2-0.1,0.3-0.2c0.2-0.1,0.4-0.3,0.6-0.4c0.1-0.1,0.2-0.2,0.4-0.3c0.2-0.2,0.4-0.3,0.6-0.5  c0.1-0.1,0.2-0.2,0.4-0.3c0.2-0.2,0.4-0.4,0.6-0.6c0.1-0.1,0.2-0.2,0.3-0.3c0.5-0.4,0.9-0.9,1.4-1.4c0.1-0.1,0.1-0.1,0.2-0.2  c0.2-0.2,0.4-0.5,0.6-0.7c0.1-0.1,0.2-0.3,0.3-0.4c0.2-0.2,0.4-0.5,0.6-0.7c0.1-0.2,0.2-0.3,0.3-0.5c0.2-0.3,0.4-0.5,0.6-0.8  c0.1-0.2,0.2-0.3,0.3-0.5c0.2-0.3,0.4-0.6,0.6-0.9c0.1-0.1,0.1-0.2,0.2-0.4c0.4-0.6,0.8-1.3,1.1-2c0.1-0.2,0.2-0.3,0.3-0.5  c0.2-0.3,0.3-0.7,0.5-1c0.1-0.2,0.2-0.4,0.3-0.7c0.2-0.3,0.3-0.7,0.5-1.1c0.1-0.2,0.2-0.5,0.3-0.7c0.2-0.4,0.3-0.7,0.5-1.1  c0.1-0.3,0.2-0.5,0.3-0.8c0.2-0.4,0.3-0.8,0.5-1.2c0-0.1,0.1-0.3,0.1-0.4c0.3-0.9,0.6-1.8,0.9-2.8c0.1-0.3,0.2-0.6,0.3-0.9  c0.1-0.4,0.3-0.9,0.4-1.3c0.1-0.3,0.2-0.7,0.3-1c0.1-0.4,0.2-0.9,0.4-1.4c0.1-0.4,0.2-0.7,0.3-1.1c0.1-0.5,0.2-0.9,0.4-1.4  c0.1-0.4,0.2-0.8,0.3-1.2c0.2-0.8,0.4-1.6,0.5-2.4c0.1-0.5,0.2-1,0.3-1.5c0,0,0,0,0,0c1.2-6.2,2.2-13.4,2.9-21.7  c0.3,0.9,0.5,1.7,0.8,2.6c0,0,1.1-2.6,2.5-7c0.7,10.1,1.8,18.8,3.3,26.1c0,0,0,0,0,0c0.1,0.5,0.2,1,0.3,1.5c0.2,0.8,0.4,1.6,0.5,2.4  c0.1,0.4,0.2,0.8,0.3,1.2c0.1,0.5,0.2,0.9,0.4,1.4c0.1,0.4,0.2,0.7,0.3,1.1c0.1,0.5,0.2,0.9,0.4,1.4c0.1,0.3,0.2,0.7,0.3,1  c0.1,0.4,0.3,0.9,0.4,1.3c0.1,0.3,0.2,0.6,0.3,0.9c0.3,1,0.6,1.9,0.9,2.8c0,0.1,0.1,0.3,0.1,0.4c0.2,0.4,0.3,0.8,0.5,1.2  c0.1,0.3,0.2,0.5,0.3,0.8c0.2,0.4,0.3,0.7,0.5,1.1c0.1,0.2,0.2,0.5,0.3,0.7c0.2,0.4,0.3,0.7,0.5,1.1c0.1,0.2,0.2,0.4,0.3,0.7  c0.2,0.3,0.3,0.7,0.5,1c0.1,0.2,0.2,0.3,0.3,0.5c0.4,0.7,0.8,1.4,1.1,2c0.1,0.1,0.1,0.2,0.2,0.4c0.2,0.3,0.4,0.6,0.6,0.9  c0.1,0.2,0.2,0.3,0.3,0.5c0.2,0.3,0.4,0.5,0.6,0.8c0.1,0.2,0.2,0.3,0.3,0.5c0.2,0.3,0.4,0.5,0.6,0.7c0.1,0.1,0.2,0.3,0.3,0.4  c0.2,0.2,0.4,0.5,0.6,0.7c0.1,0.1,0.1,0.1,0.2,0.2c0.4,0.5,0.9,1,1.4,1.4c0.1,0.1,0.2,0.2,0.3,0.3c0.2,0.2,0.4,0.4,0.6,0.6  c0.1,0.1,0.2,0.2,0.4,0.3c0.2,0.2,0.4,0.3,0.6,0.5c0.1,0.1,0.2,0.2,0.4,0.3c0.2,0.2,0.4,0.3,0.6,0.4c0.1,0.1,0.2,0.1,0.3,0.2  c0.7,0.5,1.5,0.9,2.3,1.2c0.1,0.1,0.2,0.1,0.3,0.2c0.2,0.1,0.4,0.2,0.7,0.3c0.1,0.1,0.3,0.1,0.4,0.1c0.2,0.1,0.4,0.1,0.6,0.2  c0.1,0,0.3,0.1,0.4,0.1c0.2,0.1,0.4,0.1,0.7,0.2c0.1,0,0.2,0.1,0.4,0.1c0.8,0.2,1.5,0.3,2.3,0.3c0.1,0,0.3,0,0.4,0  c0.2,0,0.4,0,0.6,0c0.1,0,0.3,0,0.4,0c0.2,0,0.4,0,0.6,0c0.2,0,0.3,0,0.5,0c0.2,0,0.4,0,0.6,0c0.1,0,0.3,0,0.4,0  c0.4,0,0.8-0.1,1.2-0.2c0.1,0,0.3,0,0.4-0.1c0.2,0,0.4-0.1,0.6-0.1c0.2,0,0.3-0.1,0.5-0.1c0.2,0,0.4-0.1,0.6-0.1  c0.2,0,0.3-0.1,0.5-0.1c0.2-0.1,0.4-0.1,0.6-0.2c0.2-0.1,0.3-0.1,0.5-0.2c0.2-0.1,0.4-0.1,0.6-0.2c0.2-0.1,0.4-0.1,0.6-0.2  c0.3-0.1,0.6-0.2,0.9-0.4c0.2-0.1,0.4-0.2,0.6-0.2c0.2-0.1,0.4-0.2,0.5-0.2c0.2-0.1,0.4-0.2,0.6-0.3c0.2-0.1,0.4-0.2,0.5-0.3  c0.2-0.1,0.4-0.2,0.6-0.3c0.2-0.1,0.3-0.2,0.5-0.3c0.2-0.1,0.4-0.2,0.6-0.3c0.2-0.1,0.3-0.2,0.5-0.3c0.3-0.2,0.7-0.4,1-0.6  c0.1-0.1,0.3-0.2,0.4-0.2c0.2-0.1,0.4-0.3,0.7-0.4c0.1-0.1,0.3-0.2,0.4-0.3c0.2-0.1,0.4-0.3,0.6-0.4c0.1-0.1,0.3-0.2,0.4-0.3  c0.2-0.1,0.4-0.3,0.6-0.4c0.1-0.1,0.3-0.2,0.4-0.3c0.2-0.2,0.5-0.3,0.7-0.5c0.1-0.1,0.2-0.2,0.3-0.2c0.3-0.2,0.6-0.5,1-0.7  c0.1-0.1,0.2-0.2,0.3-0.2c0.2-0.2,0.5-0.4,0.7-0.5c0.1-0.1,0.2-0.2,0.4-0.3c0.2-0.2,0.4-0.3,0.6-0.5c0.1-0.1,0.2-0.2,0.4-0.3  c0.2-0.2,0.4-0.4,0.6-0.5c0.1-0.1,0.2-0.2,0.3-0.3c0.3-0.2,0.5-0.5,0.8-0.7c0,0,0.1-0.1,0.1-0.1c0.3-0.3,0.6-0.6,0.9-0.8  c0.1-0.1,0.2-0.2,0.2-0.2c0.2-0.2,0.4-0.4,0.6-0.6c0.1-0.1,0.2-0.2,0.3-0.3c0.2-0.2,0.4-0.4,0.6-0.6c0.1-0.1,0.2-0.2,0.3-0.3  c0.2-0.2,0.4-0.4,0.6-0.6c0.1-0.1,0.2-0.2,0.2-0.3c0.3-0.3,0.5-0.6,0.8-0.8c17.9-19.3,27.4-50.3,27.4-50.3  c14.2-4.9,19.6-15.5,28.7-29c9.1-13.5,40.4-33.1,42.5-41.5c0.1-0.2,0.1-0.5,0.1-0.7C1045.1,462.8,1045.1,462.7,1045.1,462.6z"/>
<path class="st1" d="M300.5,421.4c4.9-9.3,9-18.4,5.3-28.9c-2.8-8.2-9.5-15.3-17.8-18c-11.2-3.6-24.1,0.7-34.4,5.1  c-21.8,9.3-41.2,25.8-56.4,43.7c-8.5,10-15.9,21.2-20.9,33.4c0-0.2,0-0.5,0-0.7c0-4.3,1.8-16.3-3.9-18.6  c1.4-14.7,6.5-28.4,15.5-40.2c0.3,0.2,0.6,0.4,0.9,0.4c1,0.3,1.8-0.2,2.2-1c0.8-0.5,1-1.7,0.7-2.6c-0.2-0.6-0.6-1-1.1-1.3  c-0.3-0.4-0.9-0.8-1.4-0.9c-0.6-0.1-1.2,0.4-1.6,0.9c-0.2,0.3-0.3,0.7-0.3,1c-0.2,0.2-0.3,0.5-0.4,0.9c-0.2,0.1-0.4,0.2-0.6,0.5  c-9.2,12-14.6,26-15.5,41c-0.1,0-0.2-0.1-0.3-0.1c0,0-0.1,0-0.1,0c-0.6-0.3-1.3-0.4-1.7,0.2c-0.7,0.2-1.4,0.5-2,0.9  c-0.7-8.4-3.4-16.7-6.7-24.4c-2.7-6.2-6.2-11.9-12.6-14.9c-0.1,0-0.1,0-0.2,0c-0.3-0.9-0.9-1.7-1.7-2.3c-0.4-0.3-1.1-0.2-1.3,0.2  c-0.3,0.4-0.6,0.8-0.9,1.2c-1,0.9-1.4,2.5-0.5,3.6c0.1,0.1,0.3,0.2,0.4,0.3c0.2,0.3,0.6,0.4,0.9,0.5c0.6,0.3,1.2,0.3,1.7,0  c0.3-0.2,0.5-0.4,0.7-0.7c0.2-0.2,0.3-0.3,0.4-0.5c12.7,6.5,15.3,25.4,18.6,38.1c-2,2.4-2.7,6.3-2.9,9.4c-0.1,1-0.1,2-0.1,3  c-4.8-9.9-11.2-19.1-18.3-27.5c-15.3-17.9-34.6-34.4-56.4-43.7c-10.3-4.4-23.2-8.8-34.4-5.1c-8.3,2.7-15,9.8-17.8,18  c-3.6,10.5,0.4,19.6,5.3,28.9c3.6,6.8,6.2,13.3,6.4,21.1c0.2,7-1,14-1.7,21c-1,10.4-0.6,22.4,6.2,31c6.1,7.6,15.1,9,24.1,8.3  c-9,6.9-14,17.9-12.6,29.5c1.9,15.3,13.2,28.3,25.3,36.9c12.5,8.8,28.3,13.6,43.4,9.3c15.5-4.5,24-17.9,29.8-32  c2-4.8,3.6-9.6,5-14.6c0.8,8.9,1.8,17.8,3.1,26.6c0,0.3,0.2,0.4,0.5,0.5c0.1,0.1,0.3,0.2,0.6,0.2c0.1,0,0.2,0,0.3-0.1  c2,1.6,3.9-0.3,4.6-2.5c0.2-0.3,0.3-0.7,0.3-1c0,0,0,0,0-0.1c1-5.8,0.6-12.7-0.4-19.1c0-0.1,0-0.2,0-0.3c1.1,3.5,2.3,6.9,3.7,10.3  c5.8,14.2,14.3,27.6,29.8,32c15.1,4.3,30.9-0.4,43.4-9.3c12.1-8.6,23.5-21.6,25.3-36.9c1.4-11.6-3.6-22.6-12.6-29.5  c9,0.7,18-0.7,24.1-8.3c6.9-8.6,7.3-20.6,6.2-31c-0.7-7-1.9-14-1.7-21C294.3,434.7,296.9,428.3,300.5,421.4z M169.3,531.9  C169.3,531.9,169.3,532,169.3,531.9c0.3,2.8,0.5,5.5,0.7,8.2C169.7,537.4,169.5,534.7,169.3,531.9z"/>
<path class="st1" d="M670,441c-7.9-18.6-28.3-32.1-48.7-29.6c-12.4,1.5-23.3,8.7-33.5,15.4c-11,7.3-21.6,15.2-31.2,24.3  c-14.5,13.7-26.6,30.2-33.1,49c0-4.8,0-9.6-0.1-14.3c0-4.6,2-17.4-4.1-19.9c1.5-15.7,7-30.4,16.5-42.9c0.3,0.2,0.6,0.4,0.9,0.5  c1,0.3,1.9-0.2,2.4-1c0.8-0.6,1.1-1.8,0.8-2.8c-0.2-0.6-0.6-1.1-1.1-1.3c-0.4-0.4-0.9-0.9-1.5-1c-0.7-0.1-1.3,0.4-1.7,1  c-0.2,0.3-0.3,0.7-0.3,1.1c-0.2,0.3-0.4,0.6-0.5,0.9c-0.2,0.1-0.4,0.2-0.6,0.5c-9.8,12.8-15.6,27.7-16.6,43.8  c-0.1,0-0.2-0.1-0.3-0.1c0,0-0.1,0-0.1,0c-0.6-0.4-1.4-0.4-1.8,0.2c-0.8,0.2-1.5,0.6-2.1,1c-0.8-8.9-3.6-17.9-7.2-26  c-2.9-6.7-6.6-12.7-13.4-15.9c-0.1,0-0.1,0-0.2,0c-0.3-1-1-1.8-1.8-2.4c-0.4-0.3-1.1-0.2-1.4,0.2c-0.3,0.4-0.7,0.8-1,1.3  c-1,1-1.5,2.6-0.6,3.8c0.1,0.2,0.3,0.2,0.5,0.3c0.3,0.3,0.6,0.5,1,0.6c0.6,0.3,1.3,0.3,1.8,0c0.3-0.2,0.5-0.4,0.7-0.7  c0.2-0.2,0.3-0.3,0.4-0.5c13.6,6.9,16.4,27.1,19.8,40.7c-2.2,2.6-2.9,6.8-3.1,10.1c-0.2,3.8-0.2,7.6-0.1,11.4  c-6.9-14-16.8-26.5-28.2-37.3c-9.6-9.1-20.2-17-31.2-24.3c-10.2-6.7-21.1-13.9-33.5-15.4c-20.4-2.5-40.8,11.1-48.7,29.6  c-8.2,19.3-2.7,42.3,10.4,58.1c16,19.4,41.9,26.4,66.2,23.8c-19.2,25-9.2,65.2,25.3,69.1c17.2,2,30.9-8,38.8-22.6  c1.8-3.3,3.5-6.9,5.1-10.6c1,12.1,2.2,24.2,4,36.2c0,0.3,0.3,0.5,0.5,0.5c0.1,0.1,0.4,0.2,0.6,0.2c0.1,0,0.2-0.1,0.3-0.1  c2.1,1.8,4.1-0.3,4.9-2.6c0.2-0.3,0.4-0.7,0.3-1.1c0,0,0-0.1,0-0.1c1.1-6.2,0.6-13.6-0.5-20.4c0.1-5.2,0.2-10.3,0.3-15.5  c1.9,4.8,4.1,9.3,6.3,13.4c8,14.7,21.6,24.6,38.8,22.6c34.5-4,44.5-44.2,25.3-69.1c24.3,2.6,50.2-4.5,66.2-23.8  C672.7,483.3,678.2,460.3,670,441z M515.8,566.7C515.9,566.8,515.9,566.8,515.8,566.7c0.4,2.9,0.6,5.8,0.7,8.7  C516.3,572.6,516.1,569.7,515.8,566.7z"/>
<path class="st1" d="M1359.8,494.1c-2.4-14.4-9.7-26.4-7.6-41.5c1.5-10.8,5.3-22,1.7-32.9c-7.2-21.9-33.9-15.6-49.2-7.4  c-20.2,10.8-35.8,28.8-48,47.8c-6,9.3-11.7,19.3-15.8,29.8c0-2.6,0-5.2,0-7.9c0-4.4,1.9-16.5-3.9-18.9c1.4-14.9,6.6-28.8,15.7-40.8  c0.3,0.2,0.6,0.4,0.9,0.4c1,0.3,1.8-0.2,2.3-1c0.8-0.5,1-1.7,0.7-2.6c-0.2-0.6-0.6-1-1.1-1.3c-0.3-0.4-0.9-0.8-1.4-0.9  c-0.6-0.1-1.3,0.4-1.6,0.9c-0.2,0.3-0.3,0.7-0.3,1c-0.2,0.2-0.3,0.5-0.4,0.9c-0.2,0.1-0.4,0.2-0.6,0.5  c-9.3,12.1-14.8,26.4-15.7,41.6c-0.1,0-0.2-0.1-0.3-0.1c0,0-0.1,0-0.1,0c-0.6-0.3-1.3-0.4-1.7,0.2c-0.8,0.2-1.4,0.5-2,1  c-0.7-8.5-3.4-17-6.8-24.7c-2.8-6.3-6.3-12.1-12.8-15.1c-0.1,0-0.1,0-0.2,0c-0.3-0.9-0.9-1.7-1.7-2.3c-0.4-0.3-1.1-0.2-1.4,0.2  c-0.3,0.4-0.6,0.8-0.9,1.2c-1,0.9-1.4,2.5-0.5,3.6c0.1,0.1,0.3,0.2,0.4,0.3c0.2,0.3,0.6,0.4,1,0.5c0.6,0.3,1.2,0.3,1.8,0  c0.3-0.2,0.5-0.4,0.7-0.7c0.2-0.2,0.3-0.3,0.4-0.5c12.9,6.6,15.5,25.8,18.9,38.6c-2.1,2.5-2.8,6.4-2.9,9.6  c-0.2,4.1-0.2,8.3-0.1,12.5c-4-9.1-9-17.8-14.3-26.1c-12.3-19-27.8-37-48-47.8c-15.4-8.2-42-14.6-49.2,7.4  c-3.6,10.9,0.1,22,1.7,32.9c2.1,15.1-5.1,27.1-7.6,41.5c-1.8,10.8,1.7,20.6,10.6,27.2c10.1,7.4,22.8,8,35,7.8  c-6.6,5.6-13.5,11.1-19.7,17.1c-5.5,5.3-10.2,11.5-11.6,19.2c-2.6,14.6,5.8,28.4,17.2,36.9c12.5,9.2,30,15.9,45.7,13.9  c15.5-1.9,27.2-13.5,33.8-27.1c5.3-10.8,8.4-23,10.5-35.3c0.9,10.7,2,21.4,3.6,32c0,0.3,0.2,0.4,0.5,0.5c0.1,0.1,0.3,0.2,0.6,0.2  c0.1,0,0.2,0,0.3-0.1c2,1.7,3.9-0.3,4.7-2.5c0.2-0.3,0.3-0.7,0.3-1.1c0,0,0,0,0-0.1c1-5.5,0.6-12-0.3-18.2c2,8.5,4.6,16.9,8.3,24.5  c6.6,13.6,18.3,25.1,33.8,27.1c15.6,1.9,33.2-4.7,45.7-13.9c11.4-8.5,19.8-22.3,17.2-36.9c-1.4-7.7-6.1-13.9-11.6-19.2  c-6.2-6-13.1-11.5-19.7-17.1c12.1,0.2,24.9-0.4,35-7.8C1358.1,514.7,1361.6,504.9,1359.8,494.1z M1233.7,559  C1233.7,559,1233.8,559,1233.7,559c0.3,2.8,0.5,5.5,0.7,8.3C1234.2,564.5,1233.9,561.7,1233.7,559z"/>
<path class="st1" d="M308.4,710.4c2-10.1-2.9-19.2-11.8-24.1c-10.6-5.8-22.7-4-33.1,1.1c-12,5.9-22.7,15.5-32.3,24.7  c-9.9,9.6-19,20.1-27,31.3c-12.7,17.9-22.6,37.8-28.8,58.8c-0.5-1-1.2-1.8-2.1-2.4c-0.9-16.6,1.8-38.6,15.8-49.1  c0.2,0.2,0.4,0.4,0.7,0.5c0.6,0.3,1.2,0,1.5-0.5c0.3-0.1,0.7-0.3,0.9-0.6c1.2-1.1,1-2.9,0-4.1c-0.3-0.3-0.8-0.4-1.2-0.3  c-0.3,0.1-0.5,0.2-0.8,0.3c-0.3,0-0.5,0-0.8,0c-0.8,0.2-1.4,0.8-1.5,1.6c0,0,0,0.1,0,0.2c-0.1,0.4-0.1,0.7,0,1.1  c-6.7,3.2-10,11.1-12.3,17.8c-3.6,10.5-4.7,21.5-3.7,32.5c-0.5-0.1-0.9-0.2-1.4-0.2c-0.2,0-0.5,0-0.7,0.1  c-0.4-9.7-2.5-21.8-9.2-28.7c-2.2-2.2-6-3.9-9.1-3.7c-4.2-8-9-15.8-14.3-23.2c-8-11.3-17-21.8-27-31.3c-9.6-9.2-20.3-18.8-32.3-24.7  c-10.5-5.2-22.5-6.9-33.1-1.1c-8.9,4.8-13.8,14-11.8,24.1c3,15,17.9,24.3,20.6,39.3c2.4,13.8-5.8,27.5,1,40.9  c13.8,27.3,48.1,21.3,74,18.5c-14.6,6.7-28.7,15-38.5,28c-10,13.3-14.2,31-7.1,46.6c7.3,16,27,23.6,43.5,25.3  c16.6,1.7,34.8-5.1,41.7-21.3c1.1-2.7,1.9-5.5,2.4-8.3c0.5,2.8,1.3,5.6,2.4,8.3c6.9,16.2,25.1,23,41.7,21.3  c16.5-1.7,36.2-9.3,43.5-25.3c7.2-15.6,2.9-33.3-7.1-46.6c-9.8-13-23.9-21.3-38.5-28c26,2.8,60.2,8.8,74-18.5  c6.8-13.4-1.4-27,1-40.9C290.5,734.7,305.4,725.4,308.4,710.4z M167.1,806.4c0.1,0.1,0.2,0.3,0.4,0.4c-0.1,0.1-0.1,0.2-0.2,0.3  C167.2,806.8,167.2,806.6,167.1,806.4z M156.4,769.9c1.9,1.1,3.6,3,4.8,4.8c1.9,2.9,3,6.2,4,9.5c1.5,5.1,2.4,10.3,3.2,15.5  c-1.2,0.7-2,1.8-2.3,3.1c-3.4-11.8-8-23.1-13.6-34L156.4,769.9z"/>
<path class="st1" d="M1017.5,718.1c-2.1-7.9-7-15.6-14.9-18.7c-10.4-4.1-22.8,0.4-32.5,4.5c-20.8,8.9-39.7,23.3-54.8,40  c-7.8,8.6-16.3,18.9-21.7,30.1c-0.2-3.7-1.1-7.2-3.9-8.4c1.3-13.9,6.2-27,14.7-38.1c0.3,0.2,0.5,0.3,0.8,0.4  c0.9,0.2,1.7-0.2,2.1-0.9c0.7-0.5,1-1.6,0.7-2.4c-0.2-0.5-0.6-0.9-1-1.2c-0.3-0.4-0.8-0.8-1.3-0.8c-0.6-0.1-1.2,0.4-1.5,0.9  c-0.2,0.3-0.2,0.6-0.3,1c-0.2,0.2-0.3,0.5-0.4,0.8c-0.2,0.1-0.4,0.2-0.6,0.5c-8.7,11.3-13.9,24.6-14.7,38.9c-0.1,0-0.2-0.1-0.3-0.1  c0,0-0.1,0-0.1,0c-0.5-0.3-1.2-0.3-1.6,0.2c-0.7,0.2-1.3,0.5-1.9,0.9c-0.7-7.9-3.2-15.9-6.4-23.1c-2.6-5.9-5.9-11.3-11.9-14.1  c-0.1,0-0.1,0-0.2,0c-0.2-0.9-0.9-1.6-1.6-2.2c-0.4-0.3-1-0.2-1.3,0.2c-0.3,0.3-0.6,0.7-0.8,1.1c-0.9,0.9-1.3,2.3-0.5,3.4  c0.1,0.1,0.3,0.2,0.4,0.3c0.2,0.2,0.5,0.4,0.9,0.5c0.5,0.2,1.1,0.3,1.6,0c0.3-0.2,0.5-0.4,0.6-0.7c0.2-0.2,0.3-0.3,0.4-0.5  c12.1,6.2,14.5,24.1,17.6,36.1c-1.9,2.2-2.6,5.8-2.7,8.7c-5.4-11.7-14.2-22.4-22.4-31.4c-15.2-16.7-34-31.2-54.8-40  c-9.6-4.1-22.1-8.6-32.5-4.5c-7.9,3.1-12.8,10.8-14.9,18.7c-2.5,9.4-1.3,19.8,2.6,28.7c1.6,3.8,3.8,7.4,6.4,10.6  c1.7,2.2,3.7,4,5.7,5.9c4.4,4.3,4.5,8.8,2.7,14.3c-3.1,9.5-2.9,20.4,5.7,27c7,5.3,16.3,6,24.9,5.9c-11,10.7-18,26.3-16.6,41.7  c0.6,6.8,3.5,13,10,15.8c7.6,3.4,16.8,1.7,22.6,8.6c4.2,5,6.2,12.1,12.2,15.4c6.2,3.4,15.2,1.9,21.8,0.5  c17.8-3.7,22.9-21.5,27.3-37.1c0.9-3.3,1.7-6.6,2.4-9.9c0.9,11.7,2.1,23.3,3.7,34.9c0,0.3,0.2,0.4,0.5,0.5c0.1,0.1,0.3,0.2,0.5,0.2  c0.1,0,0.2,0,0.2-0.1c1.9,1.6,3.7-0.3,4.4-2.3c0.2-0.3,0.3-0.6,0.3-1c0,0,0,0,0-0.1c1-5.5,0.6-12.1-0.4-18.1c0-0.4,0-0.7,0-1.1  c4.2,14.8,9.8,30.8,26.5,34.2c6.6,1.3,15.6,2.9,21.8-0.5c6-3.3,8-10.4,12.2-15.4c5.9-7,15-5.3,22.6-8.6c6.5-2.9,9.4-9,10-15.8  c1.4-15.5-5.6-31-16.6-41.7c8.6,0.1,18-0.6,24.9-5.9c8.6-6.6,8.8-17.5,5.7-27c-1.8-5.6-1.7-10,2.7-14.3c2-1.9,3.9-3.7,5.7-5.9  c2.6-3.2,4.8-6.8,6.4-10.6C1018.8,737.9,1020,727.6,1017.5,718.1z M886.7,855.3C886.8,855.3,886.8,855.3,886.7,855.3  c0.3,2.6,0.5,5.2,0.6,7.8C887.1,860.5,886.9,857.9,886.7,855.3z"/>
<path class="st1" d="M626.7,752.8c12.2-8.4,21.7-22.7,18.5-38c-2.6-12.7-13.7-23.3-27.1-22.5c-16.7,1-32.8,12.5-45.5,22.4  c-16.8,13.1-38.9,29.6-49.1,50.2c-0.2-3.7-1.1-7.2-3.8-8.4c1.3-13.7,6.1-26.5,14.4-37.5c0.3,0.2,0.5,0.3,0.8,0.4  c0.9,0.2,1.7-0.2,2.1-0.9c0.7-0.5,0.9-1.6,0.7-2.4c-0.2-0.5-0.5-0.9-1-1.2c-0.3-0.4-0.8-0.8-1.3-0.8c-0.6-0.1-1.2,0.4-1.5,0.8  c-0.2,0.3-0.2,0.6-0.3,0.9c-0.2,0.2-0.3,0.5-0.4,0.8c-0.2,0.1-0.4,0.2-0.5,0.4c-8.5,11.1-13.6,24.2-14.5,38.2  c-0.1,0-0.2-0.1-0.3-0.1c0,0-0.1,0-0.1,0c-0.5-0.3-1.2-0.3-1.6,0.2c-0.7,0.2-1.3,0.5-1.9,0.9c-0.7-7.8-3.2-15.6-6.3-22.7  c-2.5-5.8-5.8-11.1-11.7-13.9c-0.1,0-0.1,0-0.2,0c-0.2-0.8-0.9-1.6-1.6-2.1c-0.4-0.3-1-0.1-1.3,0.2c-0.3,0.3-0.6,0.7-0.8,1.1  c-0.9,0.8-1.3,2.3-0.5,3.3c0.1,0.1,0.3,0.2,0.4,0.3c0.2,0.2,0.5,0.4,0.9,0.5c0.5,0.2,1.1,0.3,1.6,0c0.3-0.1,0.5-0.4,0.6-0.6  c0.1-0.1,0.3-0.3,0.4-0.5c11.9,6.1,14.3,23.7,17.3,35.5c-0.9,1-1.5,2.4-1.9,3.8c-10.9-18.8-31.4-34.2-47.1-46.5  c-12.7-9.9-28.8-21.4-45.5-22.4c-13.4-0.8-24.4,9.8-27.1,22.5c-3.2,15.3,6.4,29.7,18.5,38c-12.5,11.2-18.8,33.9-4.5,46.3  c7.4,6.4,17.5,7.8,26.9,7.5c11.9-0.4,23.9-1.8,35.7-3c-13.9,8.8-27.8,18.9-34.8,34.3c-6.8,15.1-4.2,31.2,7.2,43.2  c10.4,10.8,28.1,20.7,43.5,18.4c17.4-2.6,25.8-22.3,29.7-37.3c0.6-2.5,1.2-4.9,1.7-7.4c0.5,4.9,1.1,9.8,1.8,14.7  c0,0.3,0.2,0.4,0.5,0.4c0.1,0.1,0.3,0.2,0.5,0.2c0.1,0,0.2,0,0.2-0.1c1.9,1.5,3.6-0.3,4.3-2.3c0.2-0.3,0.3-0.6,0.3-1c0,0,0,0,0-0.1  c0.1-0.7,0.2-1.4,0.3-2.1c4.1,14.7,12.5,32.6,29,35c15.4,2.3,33.1-7.6,43.5-18.4c11.5-11.9,14-28.1,7.2-43.2  c-6.9-15.4-20.9-25.5-34.8-34.3c11.9,1.2,23.8,2.6,35.7,3c9.4,0.3,19.5-1.1,26.9-7.5C645.6,786.7,639.2,764,626.7,752.8z   M445.3,825.2c-0.5,0.7-0.9,1.4-1.3,2c-0.3,0.1-0.5,0.3-0.8,0.4c0,0-0.1,0.1-0.1,0.1C443.7,826.8,444.5,826,445.3,825.2z M517,846.9  c0-0.1,0-0.2,0.1-0.3c0.2,1.9,0.3,3.7,0.4,5.6C517.3,850.4,517.1,848.7,517,846.9z M593.8,827.7  C593.8,827.7,593.8,827.6,593.8,827.7c-0.4-0.2-0.6-0.4-0.9-0.5c-0.4-0.7-0.8-1.4-1.3-2C592.4,826,593.1,826.8,593.8,827.7z"/>
<path class="st1" d="M1339.8,687.6c-12.2,1.3-24.6,7.2-35.2,13c-11.8,6.5-22.6,14.5-32.6,23.6c-10.6,9.7-20.1,20.6-28.9,32  c-5,6.5-9.8,13.3-14.4,20.1c-0.7,1-1.5,2.1-2.3,3.3c0-0.7,0-1.5-0.1-2.2c-0.1-3.4,0.1-8.8-3-10.7c-0.2-9.3-0.8-18.5,0-27.8  c0.6-7.4,4.9-33.5,17.6-25.5c0.1,1.1,1.2,2.1,2.3,2.3c1.5,0.2,2.8-1,3-2.4c0.3-1.7-1.1-3.1-2.8-2.8c-0.7,0.1-1.4,0.6-1.8,1.2  c-0.1,0.1-0.2,0.1-0.2,0.2c-7.5-7.5-15.8,5.8-17.7,12.1c-4.2,13.2-3.3,28.6-1.5,42.3c-0.2-0.1-0.4-0.1-0.7-0.2  c-0.5-7.2-1.7-14.4-3.3-21.4c-1.7-7.3-4-16.1-8.7-22.1c-2.8-3.5-7.7-6.6-12.3-4.3c-3.2,1.6-4.6,5.4-2.9,8.5  c-0.1,0.3-0.2,0.6-0.2,0.8c0,0.6,0.1,1.2,0.5,1.6c1.3,1.4,3.9,0.3,4-1.5c0.1-1.5-1.4-2.4-2.7-2.2c-0.1,0-0.1,0-0.2,0  c0,0-0.1,0-0.1,0c-0.6-2.3,1-4.4,4.8-6c2.5,0.1,4.7,1.1,6.4,2.9c1.7,1.6,2.8,3.9,3.9,5.9c2.2,4.4,3.8,9.1,5.1,13.8  c2.1,7.8,3.1,15.9,4.6,23.8c-0.4,0.2-0.6,0.6-0.7,1c-2.5,1.5-2.7,4.9-2.6,8c-4.3-6.4-8.8-12.7-13.5-18.9  c-8.8-11.4-18.3-22.3-28.9-32c-9.9-9-20.8-17.1-32.6-23.6c-10.6-5.8-23-11.7-35.2-13c-9.9-1-18.2,3.9-18.6,14.5  c-0.5,12.1,6.9,23.2,14.7,31.7c4.4,4.9,9.3,9.6,12.9,15.2c4.5,7,5.9,15,7.2,23c2,11.9,5.2,23.8,16.5,30c9.5,5.2,20.7,6.6,31.7,6.1  c-10.9,4.1-21.1,12.3-22.8,23.7c-1.5,9.8,2.3,19.5,1.3,29.3c-0.9,9-5.9,17.3-5.7,26.5c0.4,16,15.5,21.4,28,12.6  c14.3-10.1,24.9-27.1,32.6-42.5c5.6-11.1,9.9-22.7,13.6-34.5c0.3,11.6,0.8,23.2,1.3,34.8c0,1,1.3,1.6,2,0.8c1.8-2,2.1-3.8,2.4-6.4  c0.5-5.3,0.7-10.6,1-15.9c0.4-7,0.8-13.9,1.1-20.9c4.1,14.4,9.1,28.6,15.9,42.1c7.7,15.3,18.4,32.3,32.6,42.5  c12.4,8.8,27.6,3.4,28-12.6c0.2-9.2-4.8-17.5-5.7-26.5c-1-9.8,2.8-19.5,1.3-29.3c-1.7-11.3-11.9-19.5-22.8-23.7  c10.9,0.4,22.2-0.9,31.7-6.1c11.3-6.2,14.5-18.1,16.5-30c1.4-8.1,2.7-16,7.2-23c3.6-5.6,8.5-10.3,12.9-15.2  c7.8-8.6,15.2-19.6,14.7-31.7C1358,691.5,1349.7,686.6,1339.8,687.6z"/>
<g>
	<g>
		<g>
			<path class="st1" d="M717.4,923.1c0.5,0,0.9,0.4,0.9,0.4l-7.5,16c-0.8,0-2.8,0.1-3.3,0.1c-0.5,0-0.9-0.4-0.9-0.4l-2.6-16     c1.6,0,3.5-0.1,4.1-0.1c0.5,0,0.9,0.4,0.9,0.4l0.8,7.8c0.1,0.7,0.1,1.6,0,2.6c0.3-1.1,0.5-2.1,0.8-2.8l3.1-7.9     C715.1,923.2,716.8,923.1,717.4,923.1L717.4,923.1z"/>
		</g>
		<g>
			<path class="st1" d="M725.1,931c0,1.7-1,2.9-3.4,3.4l-2.5,0.5c0.2,1.1,0.9,1.6,2,1.6c1.4,0,2.3-1.1,2.3-1.1s0.7,0.4,0.7,1.2     c0,1.5-2.2,3-4.8,3c-2.6,0-4.4-1.7-4.4-4.5c0-3.2,2.3-7.6,6.4-7.6C723.7,927.7,725.1,929,725.1,931L725.1,931z M720.8,932.7     c0.5-0.2,0.7-0.6,0.7-1.1c0-0.5-0.2-1.2-0.7-1.2c-1,0-1.5,1.6-1.6,2.9L720.8,932.7z"/>
		</g>
		<g>
			<path class="st1" d="M732,927.7c2.1,0,3.6,1.1,3.6,2.5c0,1.8-2.2,2.4-2.2,2.4s-0.6-1.9-2.1-1.9c-1,0-1.5,1-1.5,3.1     c0,1.9,0.5,2.8,1.8,2.8c1.3,0,2.1-0.9,2.1-0.9s0.7,0.4,0.7,1.2c0,1.4-2.1,2.9-4.6,2.9c-2.7,0-4.3-1.7-4.3-4.4     C725.5,932.1,727.8,927.7,732,927.7L732,927.7z"/>
		</g>
		<g>
			<path class="st1" d="M741.9,925.1c0.5,0,0.8,0.4,0.8,0.4l-0.4,2.4h2.6l-0.6,1.9c-0.2,0.6-0.5,0.9-1.1,0.9h-1.4l-0.8,4.8     c-0.1,0.8,0,1.1,0.6,1.1c0.5,0,0.9-0.3,0.9-0.3s0.7,0.4,0.7,1.2c0,1.2-1.7,2.3-3.8,2.3c-2.2,0-3.1-1.4-2.8-3.8l0.8-5.3h-1.4     l0.6-1.9c0.2-0.5,0.6-0.9,1.1-0.9h0.7l0.8-2.3C740.5,925.4,741.4,925.1,741.9,925.1L741.9,925.1z"/>
		</g>
		<g>
			<path class="st1" d="M754.5,931c0,1.7-1,2.9-3.4,3.4l-2.5,0.5c0.2,1.1,0.9,1.6,2,1.6c1.4,0,2.3-1.1,2.3-1.1s0.7,0.4,0.7,1.2     c0,1.5-2.2,3-4.8,3c-2.6,0-4.4-1.7-4.4-4.5c0-3.2,2.3-7.6,6.4-7.6C753.1,927.7,754.5,929,754.5,931L754.5,931z M750.2,932.7     c0.5-0.2,0.7-0.6,0.7-1.1c0-0.5-0.2-1.2-0.7-1.2c-1,0-1.5,1.6-1.6,2.9L750.2,932.7z"/>
		</g>
		<g>
			<path class="st1" d="M764.9,931c0,1.7-1,2.9-3.4,3.4l-2.5,0.5c0.2,1.1,0.9,1.6,2,1.6c1.4,0,2.3-1.1,2.3-1.1s0.7,0.4,0.7,1.2     c0,1.5-2.2,3-4.8,3c-2.6,0-4.4-1.7-4.4-4.5c0-3.2,2.3-7.6,6.4-7.6C763.5,927.7,764.9,929,764.9,931L764.9,931z M760.6,932.7     c0.5-0.2,0.7-0.6,0.7-1.1c0-0.5-0.2-1.2-0.7-1.2c-1,0-1.5,1.6-1.6,2.9L760.6,932.7z"/>
		</g>
		<g>
			<path class="st1" d="M773.4,935.4c0,0,0.9,0.8,0.9,2.1c0,1.8-1.5,2.3-2.8,2.3c-1.7,0-2.9-0.8-4.1-1.2c-0.3,0.4-0.7,0.8-1,1.2     c0,0-1.9,0-1.9-1.3c0-1.5,2.6-4.2,5.4-7.2c-0.3-0.1-0.6-0.1-0.9-0.1c-1.6,0-2.2,0.8-2.2,0.8s-0.8-0.9-0.7-2.1     c0.1-1.7,1.7-2.1,3-2.1c1.3,0,2.3,0.5,3.3,0.9l0.8-0.9c0,0,1.9,0.1,1.9,1.3c0,1.5-2.5,4.1-5.2,7c0.6,0.2,1.1,0.3,1.6,0.3     C772.7,936.3,773.4,935.4,773.4,935.4L773.4,935.4z"/>
		</g>
		<g>
			<path class="st1" d="M785.5,938.8c-0.7,4.1-3.5,6.2-7,6.2c-2.3,0-3.9-1.2-3.9-2.6c0-0.9,0.8-1.3,0.8-1.3s0.8,0.7,2.3,0.7     c1.4,0,3.3-0.6,3.7-2.8l0.3-1.7c-1,1.4-2.2,2.5-3.8,2.5c-1.8,0-2.6-1.5-2.1-4.5l0.5-3.2c0.3-2,0.4-3.6,0.4-3.6     c1.3-0.2,3-0.8,3.6-0.8c0.5,0,0.9,0.4,0.9,0.4l-0.6,4l-0.6,3.7c-0.1,0.3,0,0.5,0.3,0.5c1.5,0,2.3-4.3,2.3-4.3     c0.3-2,0.4-3.6,0.4-3.6c1.3-0.2,3-0.8,3.6-0.8c0.5,0,0.9,0.4,0.9,0.4l-0.6,4L785.5,938.8z"/>
		</g>
	</g>
	<g>
		<path class="st1" d="M612.8,928.3h4c0.9,0,1.6,0.1,2.1,0.2c0.6,0.2,1.2,0.5,1.6,1c0.5,0.5,0.8,1.1,1,1.8c0.2,0.7,0.4,1.6,0.4,2.6    c0,0.9-0.1,1.7-0.3,2.3c-0.3,0.8-0.7,1.4-1.2,1.9c-0.4,0.4-0.9,0.7-1.5,0.9c-0.5,0.2-1.1,0.2-1.9,0.2h-4.1V928.3z M615,930.2v7.2    h1.6c0.6,0,1.1,0,1.3-0.1c0.4-0.1,0.7-0.2,0.9-0.5c0.2-0.2,0.4-0.6,0.6-1c0.1-0.5,0.2-1.1,0.2-2c0-0.8-0.1-1.5-0.2-1.9    s-0.4-0.8-0.6-1.1c-0.3-0.3-0.6-0.4-1-0.5c-0.3-0.1-0.9-0.1-1.8-0.1H615z"/>
		<path class="st1" d="M628,936.7l2.1,0.3c-0.3,0.8-0.7,1.3-1.3,1.7c-0.6,0.4-1.3,0.6-2.2,0.6c-1.4,0-2.4-0.4-3-1.3    c-0.5-0.7-0.8-1.6-0.8-2.7c0-1.3,0.3-2.3,1-3.1c0.7-0.7,1.5-1.1,2.6-1.1c1.2,0,2.1,0.4,2.8,1.2c0.7,0.8,1,2,1,3.6H625    c0,0.6,0.2,1.1,0.5,1.4c0.3,0.3,0.7,0.5,1.2,0.5c0.3,0,0.6-0.1,0.8-0.3C627.8,937.4,627.9,937.1,628,936.7z M628.2,934.6    c0-0.6-0.2-1.1-0.5-1.4c-0.3-0.3-0.7-0.5-1.1-0.5c-0.5,0-0.8,0.2-1.1,0.5c-0.3,0.3-0.4,0.8-0.4,1.3H628.2z"/>
		<path class="st1" d="M630.9,936.9l2.1-0.3c0.1,0.4,0.3,0.7,0.5,0.9c0.3,0.2,0.7,0.3,1.1,0.3c0.5,0,0.9-0.1,1.2-0.3    c0.2-0.1,0.3-0.3,0.3-0.6c0-0.2,0-0.3-0.1-0.4c-0.1-0.1-0.3-0.2-0.7-0.3c-1.7-0.4-2.7-0.7-3.2-1c-0.6-0.4-0.9-1-0.9-1.8    c0-0.7,0.3-1.3,0.8-1.7c0.5-0.5,1.4-0.7,2.5-0.7c1.1,0,1.9,0.2,2.4,0.5c0.5,0.4,0.9,0.9,1.1,1.6l-2,0.4c-0.1-0.3-0.2-0.5-0.5-0.7    c-0.2-0.2-0.6-0.2-1-0.2c-0.5,0-0.9,0.1-1.2,0.2c-0.2,0.1-0.2,0.2-0.2,0.4c0,0.1,0.1,0.3,0.2,0.4c0.2,0.1,0.8,0.3,1.9,0.6    c1.1,0.3,1.9,0.6,2.3,0.9c0.4,0.4,0.7,0.9,0.7,1.5c0,0.7-0.3,1.3-0.9,1.9c-0.6,0.5-1.5,0.8-2.7,0.8c-1.1,0-1.9-0.2-2.5-0.7    C631.5,938.3,631.1,937.7,630.9,936.9z"/>
		<path class="st1" d="M639.8,930.2v-1.9h2.1v1.9H639.8z M639.8,939.2v-7.9h2.1v7.9H639.8z"/>
		<path class="st1" d="M643.5,939.7l2.4,0.3c0,0.3,0.1,0.5,0.3,0.6c0.2,0.1,0.5,0.2,0.9,0.2c0.5,0,1-0.1,1.2-0.2    c0.2-0.1,0.3-0.3,0.4-0.5c0.1-0.2,0.1-0.5,0.1-1v-1.1c-0.6,0.8-1.4,1.3-2.4,1.3c-1.1,0-1.9-0.4-2.5-1.3c-0.5-0.7-0.7-1.6-0.7-2.6    c0-1.3,0.3-2.3,1-3c0.6-0.7,1.4-1,2.4-1c1,0,1.8,0.4,2.4,1.3v-1.1h1.9v7.1c0,0.9-0.1,1.6-0.2,2.1c-0.2,0.5-0.4,0.8-0.6,1.1    c-0.3,0.3-0.6,0.5-1.1,0.6c-0.5,0.1-1,0.2-1.8,0.2c-1.3,0-2.3-0.2-2.8-0.7c-0.6-0.5-0.8-1-0.8-1.7    C643.5,939.9,643.5,939.8,643.5,939.7z M645.3,935.1c0,0.8,0.2,1.4,0.5,1.8c0.3,0.4,0.7,0.6,1.2,0.6c0.5,0,0.9-0.2,1.3-0.6    c0.4-0.4,0.5-1,0.5-1.8c0-0.8-0.2-1.4-0.5-1.8c-0.3-0.4-0.8-0.6-1.3-0.6c-0.5,0-0.9,0.2-1.2,0.6S645.3,934.3,645.3,935.1z"/>
		<path class="st1" d="M659.8,939.2h-2.1v-4c0-0.8,0-1.4-0.1-1.6c-0.1-0.2-0.2-0.4-0.4-0.6c-0.2-0.1-0.4-0.2-0.7-0.2    c-0.4,0-0.7,0.1-1,0.3c-0.3,0.2-0.5,0.5-0.6,0.8s-0.2,0.9-0.2,1.8v3.6h-2.1v-7.9h1.9v1.2c0.7-0.9,1.6-1.3,2.6-1.3    c0.5,0,0.9,0.1,1.3,0.2c0.4,0.2,0.7,0.4,0.9,0.6c0.2,0.3,0.3,0.5,0.4,0.9c0.1,0.3,0.1,0.8,0.1,1.4V939.2z"/>
		<path class="st1" d="M666.2,936.7l2.1,0.3c-0.3,0.8-0.7,1.3-1.3,1.7c-0.6,0.4-1.3,0.6-2.2,0.6c-1.4,0-2.4-0.4-3-1.3    c-0.5-0.7-0.8-1.6-0.8-2.7c0-1.3,0.3-2.3,1-3.1s1.5-1.1,2.6-1.1c1.2,0,2.1,0.4,2.8,1.2c0.7,0.8,1,2,1,3.6h-5.2    c0,0.6,0.2,1.1,0.5,1.4c0.3,0.3,0.7,0.5,1.2,0.5c0.3,0,0.6-0.1,0.8-0.3C665.9,937.4,666,937.1,666.2,936.7z M666.3,934.6    c0-0.6-0.2-1.1-0.5-1.4c-0.3-0.3-0.7-0.5-1.1-0.5c-0.5,0-0.8,0.2-1.1,0.5c-0.3,0.3-0.4,0.8-0.4,1.3H666.3z"/>
		<path class="st1" d="M677,939.2H675V938c-0.3,0.4-0.7,0.8-1.1,1c-0.4,0.2-0.9,0.3-1.3,0.3c-0.9,0-1.7-0.4-2.3-1.1    c-0.6-0.7-1-1.7-1-3c0-1.3,0.3-2.3,0.9-3c0.6-0.7,1.4-1,2.4-1c0.9,0,1.6,0.4,2.3,1.1v-3.9h2.1V939.2z M671.4,935.1    c0,0.8,0.1,1.4,0.3,1.8c0.3,0.5,0.8,0.8,1.4,0.8c0.5,0,0.9-0.2,1.2-0.6c0.3-0.4,0.5-1,0.5-1.8c0-0.9-0.2-1.6-0.5-2    c-0.3-0.4-0.7-0.6-1.3-0.6c-0.5,0-0.9,0.2-1.2,0.6C671.6,933.7,671.4,934.3,671.4,935.1z"/>
		<path class="st1" d="M682.5,939.2v-10.9h2.1v3.9c0.6-0.7,1.4-1.1,2.3-1.1c1,0,1.8,0.3,2.4,1c0.6,0.7,0.9,1.7,0.9,3    c0,1.3-0.3,2.4-1,3.1c-0.6,0.7-1.4,1.1-2.3,1.1c-0.4,0-0.9-0.1-1.3-0.3c-0.4-0.2-0.8-0.6-1.1-1v1.2H682.5z M684.6,935.1    c0,0.8,0.1,1.4,0.4,1.8c0.4,0.6,0.8,0.8,1.4,0.8c0.5,0,0.9-0.2,1.2-0.6c0.3-0.4,0.5-1,0.5-1.9c0-0.9-0.2-1.5-0.5-1.9    s-0.7-0.6-1.3-0.6c-0.5,0-0.9,0.2-1.2,0.6S684.6,934.3,684.6,935.1z"/>
		<path class="st1" d="M690.6,931.3h2.2l1.9,5.6l1.8-5.6h2.2l-2.8,7.6l-0.5,1.4c-0.2,0.5-0.4,0.8-0.5,1.1s-0.4,0.4-0.6,0.6    c-0.2,0.2-0.5,0.3-0.8,0.4c-0.3,0.1-0.7,0.1-1.1,0.1c-0.4,0-0.8,0-1.2-0.1l-0.2-1.6c0.3,0.1,0.6,0.1,0.9,0.1    c0.5,0,0.8-0.1,1.1-0.4c0.2-0.3,0.4-0.6,0.5-1.1L690.6,931.3z"/>
	</g>
</g>
</svg>
